# xmcd CD database file
#
# Track frame offsets:
#	150
#	11102
#	17537
#	30535
#	45972
#	55400
#	77352
#	91745
#	113210
#	126654
#	131970
#	143652
#	151332
#	165195
#	172730
#
# Disc length: 2412 seconds
#
# Revision: 0
# Processed by: cddbd v1.5.1PL0 Copyright (c) Steve Scherf et al.
# Submitted via: CDex 1.51
#
DISCID=ae096a0f
DTITLE=JUAN PABLO II - COMPAÑEROS DE VIAJE
DYEAR=1900
DGENRE=New Age
TTITLE0=LLAMADO AL HOMBRE
TTITLE1=EL PAVIMENTO
TTITLE2=ACTOR
TTITLE3=CONTEMPLACIÓN RETROSPECTIVA DEL ENCUENTRO
TTITLE4=INFANTES
TTITLE5=LA ESPERANZA
TTITLE6=EL MELANCÓLICO
TTITLE7=MATERIA
TTITLE8=EN MEMORIA DE UN COMPAÑERO DE TRABAJO
TTITLE9=HOMBRE DE INTELECTO
TTITLE10=CIEGOS
TTITLE11=EZQUIZOIDE
TTITLE12=A LOS COMPAÑEROS DE VIAJE
TTITLE13=HOMBRE DE VOLUNTAD
TTITLE14=DESCRIPCIÓN DEL HOMBRE
EXTD=
EXTT0=
EXTT1=
EXTT2=
EXTT3=
EXTT4=
EXTT5=
EXTT6=
EXTT7=
EXTT8=
EXTT9=
EXTT10=
EXTT11=
EXTT12=
EXTT13=
EXTT14=
PLAYORDER=
